<?xml version="1.0" encoding="utf-8"?>
<!-- Generator: Adobe Illustrator 26.1.0, SVG Export Plug-In . SVG Version: 6.00 Build 0)  -->
<svg version="1.1" id="a" xmlns="http://www.w3.org/2000/svg" xmlns:xlink="http://www.w3.org/1999/xlink" x="0px" y="0px"
	 viewBox="0 0 239.6 38.4" style="enable-background:new 0 0 239.6 38.4;" xml:space="preserve">
<style type="text/css">
	.st0{fill:#FFFFFF;}
</style>
<g>
	<path class="st0" d="M25.9,7.3c-4.9,0-10.1,1.1-15.3,2.6C9.9,10,9.2,10.4,8.9,11c-0.3,0.5-0.4,1-0.5,1.5c-0.5,2.8-0.4,5.6-0.3,8.7
		c0,0.7,0.1,1.5,0.5,2.1c0.3,0.5,0.9,0.8,1.6,0.9c0.9,0.1,1.8,0.2,2.7,0.3l-0.2,5.6c0,0.4,0.2,0.8,0.5,1c0.2,0.2,0.5,0.3,0.8,0.3
		c0.6,0,1.2-0.2,1.5-0.8c1.4-2.7,2.3-3.9,4.1-5.7C24,25,28,24.8,32.6,24.4c1.6,0,2.7-1.4,3-2.4c0.9-2.7,1-6.1,1.1-9.4
		c0-1.3-0.4-2.7-1.3-3.4c-0.8-0.6-1.7-0.9-2.6-1.1C30.4,7.6,28,7.3,25.9,7.3L25.9,7.3z M32.5,9.4c0.9,0.2,1.6,0.5,2.1,0.9
		c0.8,0.9,0.8,1.4,0.8,2.4c-0.1,3.3-0.2,6.5-1,8.9c-0.3,0.9-0.9,1.5-1.9,1.6c-4.6,0.3-8.6,0.6-13.3,0.5c-0.2,0-0.4,0.1-0.5,0.2
		c-1.9,2-2.9,3.3-4.4,6.2c0,0.1-0.1,0.1-0.2,0.1c-0.1,0-0.1-0.1-0.1-0.1l0.2-6c0-0.3-0.3-0.6-0.6-0.7c-1.1-0.1-2.2-0.2-3.2-0.4
		c-0.5-0.1-0.6-0.2-0.8-0.4c-0.2-0.5-0.2-0.9-0.2-1.4c-0.1-3.1-0.2-5.7,0.3-8.4c0-0.4,0.2-0.8,0.3-1.1c0.3-0.4,0.7-0.5,1.1-0.6
		c5.1-1.4,10.1-2.5,14.8-2.5C28.1,8.7,30.6,8.9,32.5,9.4L32.5,9.4z M14.9,14.6c-0.7,0.8-0.6,2-0.1,2.8c0.3,0.4,0.7,0.7,1.3,0.8
		c0.7,0.1,1.1-0.2,1.6-0.6c0.9-0.8,1-2.1,0.3-3c-0.3-0.5-0.9-0.8-1.4-0.8C15.8,13.8,15.3,14.1,14.9,14.6
		C14.9,14.6,14.9,14.6,14.9,14.6z M22.5,13.9c-0.7,0-1.3,0.5-1.6,1c-0.4,0.6-0.6,1.3-0.3,2.1c0.6,1.4,2.7,1.4,3.6,0
		c0.4-0.7,0.3-1.4,0-2c-0.3-0.5-0.7-1-1.4-1.1C22.7,13.9,22.6,13.9,22.5,13.9L22.5,13.9z M28.6,14.1c-0.2,0-0.4,0-0.7,0.1
		c-0.8,0.2-1.6,1.1-1.4,2.2c0.1,0.6,0.3,1.1,0.8,1.5c0.5,0.4,1.1,0.5,1.8,0.4c0.8-0.2,1.3-0.8,1.5-1.5c0.2-0.6,0.1-1.3-0.3-1.8
		C30,14.4,29.3,14.1,28.6,14.1L28.6,14.1L28.6,14.1z M16.5,15.1c0.2,0,0.3,0.1,0.4,0.2c0.3,0.4,0.2,1-0.1,1.3
		c-0.3,0.3-0.5,0.3-0.6,0.3c-0.1,0-0.3-0.1-0.4-0.3c-0.2-0.3-0.3-0.8,0-1.2C16,15.3,16.3,15.1,16.5,15.1L16.5,15.1L16.5,15.1z
		 M22.5,15.2c0,0,0.3,0.2,0.4,0.4c0.1,0.2,0.2,0.5,0,0.7c-0.4,0.6-1.2,0.5-1.3,0.2c0-0.1,0-0.5,0.2-0.8
		C22.2,15.4,22.4,15.2,22.5,15.2L22.5,15.2L22.5,15.2z M29.3,15.7c0,0.1,0.1,0.4,0.1,0.7c-0.1,0.3-0.2,0.5-0.5,0.5
		c-0.4,0.1-0.6,0-0.8-0.1c-0.2-0.1-0.3-0.4-0.3-0.6c-0.1-0.6,0.2-0.7,0.5-0.8C28.7,15.3,29.1,15.5,29.3,15.7z"/>
	<path class="st0" d="M44.9,9.9c0-0.2,0.1-0.3,0.2-0.4c0.1-0.1,0.3-0.2,0.4-0.2h4.4c0.1,0,0.3,0.1,0.5,0.2c0.1,0.1,0.2,0.3,0.2,0.5
		v7h7.3v-7c0-0.2,0.1-0.3,0.2-0.5c0.1-0.1,0.3-0.2,0.5-0.2h4.3c0.2,0,0.4,0.1,0.5,0.1c0.1,0.1,0.2,0.3,0.2,0.5v20.6
		c0,0.2-0.1,0.4-0.2,0.5c-0.1,0.1-0.3,0.2-0.5,0.2h-4.4c-0.2,0-0.4-0.1-0.5-0.2c-0.1-0.1-0.2-0.3-0.2-0.5v-8.4h-7.3v8.4
		c0,0.2-0.1,0.4-0.2,0.5c-0.1,0.1-0.3,0.2-0.5,0.2h-4.3c-0.4,0-0.6-0.2-0.6-0.6C44.9,30.6,44.9,9.9,44.9,9.9z M85.2,30.9
		c-0.1,0.1-0.3,0.2-0.4,0.2c-0.1,0-0.3,0-0.4,0h-2.2c-0.2,0-0.3,0-0.5-0.1c-0.1-0.1-0.2-0.1-0.3-0.3c-0.1-0.1-0.2-0.2-0.2-0.4
		C81.1,30.3,81,30.2,81,30l-0.5-1.9c-0.1,0.3-0.4,0.6-0.6,1c-0.3,0.4-0.7,0.8-1.1,1.1c-0.4,0.3-0.9,0.6-1.5,0.9s-1.3,0.3-2.1,0.3
		c-1.1,0-2.1-0.2-3.1-0.6c-0.9-0.4-1.7-1-2.3-1.8c-0.6-0.7-1.1-1.6-1.5-2.6c-0.4-1-0.5-2.1-0.5-3.2v-9.6c0-0.4,0.1-0.7,0.2-0.8
		c0.2-0.2,0.4-0.3,0.8-0.3h3.4c0.4,0,0.7,0.1,0.9,0.2c0.2,0.1,0.2,0.4,0.2,0.8v9.6c0,0.4,0.1,0.8,0.3,1.2c0.2,0.4,0.4,0.7,0.8,1
		c0.3,0.3,0.7,0.5,1.1,0.7c0.4,0.2,0.8,0.3,1.2,0.3c0.4,0,0.7-0.1,1.1-0.3c0.4-0.2,0.7-0.4,1-0.7c0.3-0.3,0.6-0.6,0.8-1
		c0.2-0.4,0.3-0.8,0.3-1.2v-9.6c0-0.2,0-0.3,0.1-0.5c0.1-0.2,0.2-0.3,0.3-0.4c0.1-0.1,0.3-0.1,0.4-0.2c0.1,0,0.2,0,0.4,0h3.3
		c0.4,0,0.7,0.1,0.9,0.3c0.2,0.2,0.3,0.5,0.3,0.8v16.5c0,0.2,0,0.4-0.1,0.5C85.4,30.8,85.3,30.9,85.2,30.9L85.2,30.9L85.2,30.9z
		 M102.3,28.9c-0.3,0.3-0.6,0.6-0.9,0.9c-0.3,0.3-0.7,0.6-1.1,0.9c-0.4,0.3-0.8,0.5-1.2,0.7c-0.5,0.2-0.9,0.3-1.4,0.3
		c-1.3,0-2.6-0.3-3.7-0.8c-1.1-0.5-2.1-1.2-2.9-2.1c-0.8-0.9-1.4-1.9-1.9-3.1s-0.7-2.4-0.7-3.8s0.2-2.6,0.7-3.8
		c0.5-1.2,1.1-2.2,1.9-3.1c0.8-0.9,1.8-1.6,2.9-2c1.1-0.5,2.4-0.7,3.7-0.7c0.5,0,1,0.1,1.5,0.2c0.4,0.1,0.8,0.4,1.2,0.6
		c0.4,0.2,0.7,0.5,1,0.8c0.3,0.3,0.6,0.6,0.9,0.9V8c0-0.3,0.1-0.6,0.3-0.8s0.5-0.3,0.9-0.3h3.3c0.1,0,0.3,0,0.4,0.1s0.3,0.1,0.4,0.2
		c0.1,0.1,0.2,0.2,0.3,0.4c0.1,0.1,0.1,0.3,0.1,0.5v22c0,0.8-0.4,1.1-1.2,1.1h-2.9c-0.2,0-0.3,0-0.5-0.1c-0.1,0-0.2-0.1-0.3-0.2
		c-0.1-0.1-0.1-0.2-0.2-0.4c-0.1-0.2-0.1-0.3-0.2-0.5L102.3,28.9L102.3,28.9L102.3,28.9z M93.8,21.8c0,0.6,0.1,1.2,0.3,1.8
		c0.2,0.6,0.5,1.1,0.9,1.5c0.4,0.4,0.8,0.8,1.3,1c0.5,0.2,1.1,0.4,1.7,0.4s1.2-0.1,1.8-0.3c0.5-0.2,1-0.5,1.4-0.9s0.8-0.9,1-1.4
		c0.3-0.5,0.4-1.1,0.4-1.7v-0.2c0-0.6-0.1-1.2-0.4-1.8c-0.2-0.6-0.6-1.1-1-1.5c-0.4-0.4-0.9-0.8-1.5-1c-0.6-0.3-1.2-0.4-1.8-0.4
		c-0.6,0-1.2,0.1-1.7,0.4c-0.5,0.3-1,0.6-1.3,1c-0.4,0.4-0.7,1-0.9,1.5C93.9,20.6,93.8,21.2,93.8,21.8L93.8,21.8L93.8,21.8z
		 M125,28.9c-0.3,0.3-0.6,0.6-0.9,0.9c-0.3,0.3-0.7,0.6-1.1,0.9c-0.4,0.3-0.8,0.5-1.2,0.7c-0.5,0.2-0.9,0.3-1.4,0.3
		c-1.3,0-2.6-0.3-3.7-0.8c-1.1-0.5-2.1-1.2-2.9-2.1c-0.8-0.9-1.4-1.9-1.9-3.1c-0.5-1.2-0.7-2.4-0.7-3.8s0.2-2.6,0.7-3.8
		c0.5-1.2,1.1-2.2,1.9-3.1c0.8-0.9,1.8-1.6,2.9-2c1.1-0.5,2.4-0.7,3.7-0.7c0.5,0,1,0.1,1.5,0.2c0.4,0.1,0.8,0.4,1.2,0.6
		c0.4,0.2,0.7,0.5,1,0.8c0.3,0.3,0.6,0.6,0.9,0.9V8c0-0.3,0.1-0.6,0.3-0.8c0.2-0.2,0.5-0.3,0.9-0.3h3.3c0.1,0,0.3,0,0.4,0.1
		s0.3,0.1,0.4,0.2c0.1,0.1,0.2,0.2,0.3,0.4c0.1,0.1,0.1,0.3,0.1,0.5v22c0,0.8-0.4,1.1-1.2,1.1h-2.9c-0.2,0-0.3,0-0.5-0.1
		s-0.2-0.1-0.3-0.2c-0.1-0.1-0.1-0.2-0.2-0.4c-0.1-0.2-0.1-0.3-0.2-0.5L125,28.9L125,28.9L125,28.9z M116.6,21.8
		c0,0.6,0.1,1.2,0.3,1.8c0.2,0.6,0.5,1.1,0.9,1.5c0.4,0.4,0.8,0.8,1.3,1c0.5,0.2,1.1,0.4,1.7,0.4s1.2-0.1,1.8-0.3
		c0.5-0.2,1-0.5,1.4-0.9c0.4-0.4,0.8-0.9,1-1.4c0.3-0.5,0.4-1.1,0.4-1.7v-0.2c0-0.6-0.1-1.2-0.4-1.8c-0.2-0.6-0.6-1.1-1-1.5
		c-0.4-0.4-0.9-0.8-1.5-1c-0.6-0.3-1.2-0.4-1.8-0.4c-0.6,0-1.2,0.1-1.7,0.4c-0.5,0.3-1,0.6-1.3,1c-0.4,0.4-0.7,1-0.9,1.5
		C116.7,20.6,116.6,21.2,116.6,21.8L116.6,21.8L116.6,21.8z M134.6,8c0-0.3,0.1-0.6,0.2-0.8c0.2-0.2,0.4-0.3,0.8-0.3h3.6
		c0.1,0,0.2,0,0.3,0.1c0.1,0.1,0.2,0.1,0.3,0.2c0.1,0.1,0.2,0.2,0.2,0.4c0.1,0.1,0.1,0.3,0.1,0.5v22c0,0.4-0.1,0.7-0.3,0.8
		c-0.2,0.2-0.5,0.3-0.8,0.3h-3.4c-0.4,0-0.7-0.1-0.8-0.3c-0.2-0.2-0.2-0.5-0.2-0.8L134.6,8L134.6,8z M159.4,28.9
		c-0.9,0.8-1.8,1.4-2.9,1.9c-1.1,0.4-2.3,0.7-3.4,0.7c-1.3,0-2.6-0.2-3.8-0.7c-1.2-0.5-2.2-1.2-3.2-2c-0.9-0.9-1.6-1.9-2.1-3.1
		c-0.5-1.2-0.8-2.5-0.8-3.8c0-0.9,0.1-1.7,0.3-2.5c0.2-0.8,0.5-1.6,0.9-2.3c0.4-0.7,0.9-1.4,1.4-2c0.6-0.6,1.2-1.1,1.9-1.5
		c0.7-0.4,1.5-0.8,2.2-1c0.8-0.2,1.7-0.4,2.6-0.4c0.8,0,1.6,0.1,2.4,0.3c0.8,0.2,1.5,0.5,2.2,0.9c0.7,0.4,1.3,0.9,1.8,1.4
		c0.6,0.5,1,1.1,1.4,1.8c0.4,0.7,0.7,1.4,0.9,2.1c0.2,0.7,0.3,1.5,0.3,2.3c0,0.5,0,0.9,0,1.3c0,0.3-0.1,0.6-0.2,0.8
		c-0.1,0.2-0.4,0.3-0.7,0.4c-0.3,0.1-0.8,0.1-1.4,0.1h-10.6c0.1,0.6,0.3,1.2,0.6,1.6c0.3,0.4,0.6,0.7,1,1c0.4,0.3,0.8,0.4,1.3,0.5
		c0.4,0.1,0.8,0.2,1.3,0.2c0.4,0,0.7,0,1.1-0.1c0.4-0.1,0.7-0.2,1.1-0.3c0.3-0.1,0.7-0.3,1-0.4c0.3-0.2,0.5-0.3,0.7-0.5
		c0.2-0.1,0.3-0.2,0.4-0.3c0.1-0.1,0.2-0.1,0.4-0.1s0.3,0,0.4,0.1c0.2,0.1,0.3,0.2,0.4,0.4l1.6,1.8c0.1,0.1,0.2,0.2,0.2,0.3
		c0,0.1,0,0.2,0,0.3c0,0.2-0.1,0.4-0.2,0.5C159.7,28.7,159.6,28.8,159.4,28.9L159.4,28.9L159.4,28.9z M152.4,16.7
		c-0.4,0-0.8,0.1-1.1,0.2c-0.4,0.2-0.7,0.4-1,0.6c-0.3,0.3-0.6,0.5-0.8,0.9c-0.2,0.3-0.4,0.6-0.6,1h7.5c-0.2-0.4-0.4-0.7-0.7-1.1
		c-0.2-0.3-0.5-0.6-0.8-0.9c-0.3-0.3-0.7-0.4-1.1-0.6C153.4,16.7,152.9,16.7,152.4,16.7L152.4,16.7z"/>
</g>
</svg>
